#!OML:ASF F:\VICON\USERDATA\INSTALL\rory3\rory3.ASF
:FULLY-SPECIFIED
:DEGREES
348
root -0.953947 15.7775 11.906 -16.1005 -0.740385 6.43252
lowerback 12.3559 -0.413535 -0.181781
upperback 3.13371 -0.540538 0.747781
thorax -3.63224 -0.266969 0.964239
lowerneck -7.53877 -2.88995 -6.63111
upperneck 8.11046 -3.64244 5.37148
head 3.87094 -1.73955 2.51311
rclavicle -1.03368e-014 -1.59028e-014
rhumerus -17.2378 1.6219 -82.9157
rradius 30.3428
rwrist 2.71537
rhand -32.2197 -2.2659
rfingers 7.12502
rthumb -5.46082 -32.1755
lclavicle -1.03368e-014 -1.59028e-014
lhumerus -37.571 17.8128 75.8306
lradius 18.6981
lwrist -1.00429
lhand -21.128 27.2736
lfingers 7.12502
lthumb 5.25076 57.1885
rfemur -20.5706 7.3034 13.3878
rtibia 76.7077
rfoot -34.275 -6.3543
rtoes -10.5159
lfemur -18.1786 9.78233 -22.7688
ltibia 75.3251
lfoot -27.15 -4.20979
ltoes -4.08388
349
root -0.958787 15.8877 11.9578 -15.7661 -1.09101 5.73178
lowerback 12.0182 -0.425151 0.532327
upperback 2.95412 -0.462383 0.886747
thorax -3.64075 -0.232451 0.692293
lowerneck -7.5638 -2.90957 -6.82817
upperneck 8.36816 -3.68132 5.65221
head 3.96443 -1.75107 2.62867
rclavicle 3.77691e-015 -1.43125e-014
rhumerus -17.0936 2.0864 -83.0326
rradius 30.4338
rwrist 2.87384
rhand -31.7503 -1.93982
rfingers 7.12502
rthumb -5.00762 -31.8606
lclavicle 3.77691e-015 -1.43125e-014
lhumerus -37.0492 17.7834 75.9763
lradius 18.8657
lwrist -1.02495
lhand -21.7415 26.5949
lfingers 7.12502
lthumb 4.65839 56.5237
rfemur -20.0362 7.78273 14.4069
rtibia 75.3434
rfoot -34.0875 -6.42591
rtoes -10.1842
lfemur -17.6566 9.79893 -21.9566
ltibia 74.1373
lfoot -27.1422 -3.98532
ltoes -3.53195
350
root -0.961698 16.0201 12.0102 -15.3501 -1.10058 5.62442
lowerback 11.5842 -0.459058 0.586786
upperback 2.7504 -0.505331 0.846799
thorax -3.61556 -0.254172 0.623417
lowerneck -7.57269 -2.95366 -6.86886
upperneck 8.63268 -3.75211 5.72217
head 4.05285 -1.78411 2.65209
rclavicle -6.16232e-015 -1.59028e-015
rhumerus -16.9528 2.53635 -83.1375
rradius 30.4557
rwrist 3.28754
rhand -31.2018 -1.85866
rfingers 7.12502
rthumb -4.47801 -31.7913
lclavicle -6.16232e-015 -1.59028e-015
lhumerus -36.6116 18.0336 75.921
lradius 19.135
lwrist -1.58222
lhand -21.541 26.6763
lfingers 7.12502
lthumb 4.85194 56.6007
rfemur -19.5954 8.03258 14.5853
rtibia 73.9819
rfoot -33.938 -6.45407
rtoes -10.578
lfemur -17.2952 9.63312 -21.9985
ltibia 72.8624
lfoot -27.1884 -2.69554
ltoes -5.47179
351
root -0.96616 16.1349 12.0553 -15.0356 -1.0097 5.77223
lowerback 11.2932 -0.464641 0.336961
upperback 2.60632 -0.548598 0.728293
thorax -3.60426 -0.273884 0.645151
lowerneck -7.62226 -3.02591 -6.75448
upperneck 8.82418 -3.85952 5.65194
head 4.12271 -1.83644 2.60415
rclavicle -1.05356e-014 1.43125e-014
rhumerus -16.82 2.91144 -83.2449
rradius 30.5455
rwrist 3.61886
rhand -31.1871 -1.95612
rfingers 7.12502
rthumb -4.46379 -31.8891
lclavicle -1.05356e-014 1.43125e-014
lhumerus -36.0597 18.063 75.9944
lradius 19.3945
lwrist -1.68702
lhand -21.4991 27.0902
lfingers 7.12502
lthumb 4.89246 57.0137
rfemur -19.028 8.17087 14.4541
rtibia 72.7122
rfoot -33.6152 -6.62458
rtoes -10.4166
lfemur -16.9687 9.4413 -22.3216
ltibia 71.6047
lfoot -26.99 -1.57593
ltoes -6.56774
352
root -0.973404 16.2166 12.0899 -14.7737 -1.11532 5.69373
lowerback 11.1567 -0.407899 0.244058
upperback 2.49742 -0.484239 0.728301
thorax -3.64234 -0.241064 0.687813
lowerneck -7.75716 -3.08995 -6.78328
upperneck 8.95995 -3.95087 5.7643
head 4.19506 -1.87454 2.63588
rclavicle 1.55052e-014 1.27222e-014
rhumerus -16.6458 3.30985 -83.2728
rradius 30.6599
rwrist 3.90834
rhand -30.3627 -1.46464
rfingers 7.12502
rthumb -3.66776 -31.4128
lclavicle 1.55052e-014 1.27222e-014
lhumerus -35.3643 17.6292 76.4219
lradius 19.5857
lwrist -0.866958
lhand -22.4217 27.3406
lfingers 7.12502
lthumb 4.00154 57.2828
rfemur -18.5674 8.4874 14.6712
rtibia 71.5969
rfoot -33.1611 -6.8152
rtoes -9.64159
lfemur -16.4938 9.34015 -22.2777
ltibia 70.3552
lfoot -26.7018 -1.28844
ltoes -6.22872
353
root -0.980092 16.3028 12.1235 -14.4648 -1.13441 5.7726
lowerback 10.9956 -0.340669 -0.0244499
upperback 2.3373 -0.426925 0.695842
thorax -3.7192 -0.209894 0.796886
lowerneck -7.7539 -3.14978 -6.93605
upperneck 8.99849 -4.03973 5.99544
head 4.21968 -1.91135 2.7265
rclavicle -9.24349e-015 -6.36111e-015
rhumerus -16.6002 3.85574 -83.2585
rradius 30.819
rwrist 4.14038
rhand -28.8914 -1.01389
rfingers 7.12502
rthumb -2.24683 -30.9818
lclavicle -9.24349e-015 -6.36111e-015
lhumerus -34.8022 17.2945 76.7615
lradius 19.7199
lwrist -0.337734
lhand -23.4056 27.0208
lfingers 7.12502
lthumb 3.05136 56.9787
rfemur -18.2861 8.78819 14.6579
rtibia 70.5879
rfoot -32.8844 -6.74033
rtoes -8.92544
lfemur -15.9361 9.14604 -22.4346
ltibia 69.0208
lfoot -26.4571 -1.20377
ltoes -5.75858
